<svg width="230" height="105" viewBox="0 0 230 105" fill="none" xmlns="http://www.w3.org/2000/svg">
<path d="M67.3171 61.3881C66.8024 65.8429 65.1724 69.2852 62.4272 71.7151C59.7011 74.1257 56.0695 75.3311 51.5323 75.3311C46.6138 75.3311 42.6677 73.5471 39.6937 69.9795C36.7388 66.4118 35.2614 61.6388 35.2614 55.6604V51.6106C35.2614 47.6958 35.9477 44.2534 37.3203 41.2836C38.7119 38.3137 40.6755 36.0381 43.211 34.4568C45.7465 32.8561 48.6822 32.0558 52.0184 32.0558C56.4412 32.0558 59.9871 33.3093 62.656 35.8163C65.3249 38.3041 66.8786 41.7561 67.3171 46.1723H61.7981C61.3215 42.8167 60.2825 40.3868 58.6812 38.8826C57.0989 37.3784 54.878 36.6263 52.0184 36.6263C48.5106 36.6263 45.756 37.9377 43.7543 40.5604C41.7716 43.1831 40.7803 46.9147 40.7803 51.7553V55.834C40.7803 60.4045 41.724 64.0397 43.6113 66.7396C45.4986 69.4395 48.1389 70.7895 51.5323 70.7895C54.5825 70.7895 56.9178 70.0952 58.5382 68.7067C60.1777 67.2988 61.2643 64.8593 61.7981 61.3881H67.3171Z" fill="white"/>
<path d="M7.51239 50.0639C3.04122 42.2673 2.13233 34.9704 5.31126 29.4697C9.56705 22.0953 20.2496 19.5195 33.7579 21.979C33.9436 22.0043 34.1222 22.0669 34.2829 22.163C34.4438 22.2592 34.5834 22.3869 34.6934 22.5386C34.8035 22.6901 34.8817 22.8625 34.9233 23.0451C34.965 23.2278 34.9692 23.417 34.9357 23.6013C34.9022 23.7856 34.8317 23.9613 34.7285 24.1176C34.6253 24.274 34.4914 24.4077 34.3351 24.5109C34.1787 24.6142 34.0031 24.6846 33.8188 24.7181C33.6344 24.7515 33.4452 24.7474 33.2626 24.7057C20.7709 22.4313 11.247 24.7272 7.71054 30.8568C5.1045 35.3667 5.88846 41.6643 9.91598 48.6898C10.0172 48.848 10.0852 49.0251 10.1159 49.2104C10.1466 49.3956 10.1394 49.5852 10.0947 49.7676C10.05 49.95 9.96863 50.1214 9.85572 50.2714C9.74272 50.4215 9.60047 50.547 9.43763 50.6405C9.2747 50.7338 9.09447 50.7932 8.90799 50.8149C8.72142 50.8367 8.53237 50.8202 8.35238 50.7668C8.17239 50.7132 8.00511 50.6237 7.86072 50.5037C7.71632 50.3835 7.59782 50.2354 7.51239 50.0682V50.0639ZM71.7801 23.9217C79.6844 24.0251 85.3749 26.4889 87.9378 30.9257C91.4695 37.038 88.7127 46.4111 80.5369 56.0686C80.4063 56.205 80.3045 56.367 80.238 56.5443C80.1714 56.7218 80.1426 56.9108 80.1522 57.0999C80.1618 57.289 80.2099 57.4742 80.2933 57.6439C80.3774 57.8138 80.4952 57.9646 80.6395 58.0871C80.7837 58.2096 80.952 58.3013 81.1331 58.3565C81.3142 58.4117 81.505 58.4292 81.6925 58.408C81.8808 58.3867 82.0627 58.3272 82.227 58.233C82.3913 58.1389 82.5348 58.0121 82.6478 57.8605C91.4951 47.4105 94.5837 36.9002 90.3371 29.5387C87.2093 24.1242 80.6018 21.2683 71.8189 21.152C71.6308 21.1394 71.4422 21.1653 71.2644 21.228C71.0868 21.2909 70.9237 21.3892 70.7852 21.5171C70.6467 21.645 70.5358 21.7998 70.4592 21.972C70.3826 22.1442 70.3418 22.3302 70.3395 22.5187C70.3371 22.7071 70.3732 22.8941 70.4456 23.0682C70.5179 23.2422 70.6249 23.3997 70.7601 23.531C70.8954 23.6624 71.056 23.7647 71.2321 23.8318C71.4082 23.899 71.5961 23.9296 71.7845 23.9217H71.7801ZM63.7941 89.5638C63.638 89.47 63.4649 89.4075 63.2847 89.3802C63.1045 89.353 62.9207 89.3618 62.7439 89.4059C62.5672 89.45 62.4007 89.5285 62.2542 89.6367C62.1077 89.7449 61.9841 89.8811 61.8901 90.0374C57.867 96.7266 52.9305 100.371 47.8477 100.371C40.7748 100.371 34.0293 93.2766 29.7562 81.3407C29.6992 81.1636 29.6071 81.0001 29.4856 80.8598C29.364 80.7188 29.2155 80.6042 29.0488 80.5224C28.882 80.4399 28.7005 80.3926 28.515 80.3822C28.3294 80.3718 28.1438 80.3982 27.9688 80.4607C27.7939 80.524 27.6333 80.621 27.4966 80.7468C27.3599 80.8727 27.25 81.0249 27.1732 81.194C27.0965 81.3631 27.0545 81.5458 27.0498 81.7317C27.0451 81.9177 27.0778 82.1028 27.1459 82.2751C31.7679 95.1896 39.3361 103.141 47.8391 103.141C54.0419 103.141 59.7838 98.9112 64.2636 91.4679C64.3575 91.3116 64.4198 91.1385 64.4468 90.9582C64.4738 90.7779 64.4651 90.5944 64.4211 90.4172C64.3771 90.2409 64.2987 90.0742 64.1904 89.9276C64.082 89.7809 63.9459 89.6575 63.7898 89.5638H63.7941ZM95.4797 78.3899C95.4781 79.6082 95.1407 80.8021 94.5044 81.8415C93.8689 82.8809 92.9585 83.7248 91.875 84.281C90.7907 84.8371 89.575 85.084 88.3601 84.995C87.1444 84.9053 85.9775 84.4829 84.987 83.7745C74.4121 89.9989 54.2056 86.8326 35.1923 75.8485C27.0943 71.1749 19.9998 65.545 14.5379 59.5447C14.4068 59.4116 14.3038 59.2535 14.2353 59.0796C14.1667 58.9058 14.134 58.72 14.1391 58.5332C14.1441 58.3464 14.1868 58.1626 14.2647 57.9927C14.3426 57.8229 14.454 57.6705 14.5922 57.5448C14.7304 57.4191 14.8926 57.3226 15.069 57.2611C15.2455 57.1996 15.4325 57.1744 15.6189 57.187C15.8053 57.1996 15.9873 57.2496 16.1539 57.3343C16.3205 57.4189 16.4682 57.5364 16.5883 57.6795C21.852 63.4645 28.7224 68.9178 36.5751 73.4493C54.5244 83.813 73.417 86.8887 83.0829 81.6596C82.5796 80.7765 82.2863 79.789 82.2246 78.7744C82.1637 77.7596 82.3368 76.7444 82.7303 75.8071C83.1238 74.8698 83.7272 74.0356 84.4942 73.3686C85.2619 72.7017 86.1723 72.22 87.1548 71.9608C88.1381 71.7016 89.1671 71.6717 90.1632 71.8736C91.1602 72.0753 92.0962 72.5035 92.9008 73.1249C93.7054 73.7462 94.3569 74.544 94.8041 75.457C95.2513 76.3699 95.4821 77.3734 95.4797 78.3899ZM13.3705 78.3899C13.3727 79.5601 13.0652 80.71 12.4794 81.7229C11.8936 82.7359 11.0502 83.5758 10.0348 84.1576C9.01954 84.7394 7.86838 85.0423 6.69822 85.0351C5.52805 85.0287 4.38053 84.7121 3.37208 84.1191C2.36363 83.5253 1.53014 82.675 0.956206 81.6556C0.382263 80.6354 0.0882928 79.4823 0.104123 78.3123C0.119953 77.1422 0.445019 75.9971 1.04634 74.9933C1.64766 73.9894 2.50382 73.1624 3.52796 72.5963C2.52432 60.2037 15.5459 43.5897 35.2311 32.2265C43.4067 27.5055 51.9183 24.1543 59.9173 22.4442C60.2646 22.3953 60.6174 22.4797 60.905 22.6804C61.1925 22.8812 61.3933 23.1834 61.467 23.5262C61.5407 23.869 61.4818 24.227 61.3022 24.5282C61.1226 24.8293 60.8355 25.0512 60.4988 25.1493C52.7885 26.8034 44.5482 30.047 36.6138 34.6258C18.0743 45.33 5.82386 60.7594 6.2546 71.7865C6.41829 71.7736 6.57766 71.7607 6.74135 71.7607C10.4027 71.7607 13.3749 74.7329 13.3749 78.3943L13.3705 78.3899ZM41.2142 6.39452C41.2761 4.6777 42.0016 3.05184 43.2381 1.85916C44.4746 0.666481 46.1255 0 47.8435 0C49.5613 0 51.2123 0.666481 52.4487 1.85916C53.6852 3.05184 54.4107 4.6777 54.4727 6.39452C54.4727 6.49359 54.464 6.58835 54.4598 6.68312C65.4395 12.3561 73.0681 31.7096 73.0681 54.0784C73.0681 63.2749 71.7845 72.101 69.3895 79.7511C69.3418 79.9325 69.2578 80.1023 69.1427 80.25C69.0275 80.3982 68.8836 80.5216 68.7195 80.6122C68.5554 80.7028 68.3746 80.7597 68.1881 80.7781C68.0016 80.7973 67.8131 80.7781 67.6341 80.722C67.4552 80.6659 67.2894 80.5745 67.1469 80.4527C67.0043 80.3309 66.8879 80.181 66.8048 80.0134C66.7217 79.8453 66.6735 79.6621 66.6632 79.4749C66.6528 79.2877 66.6805 79.1003 66.7447 78.9241C69.0536 71.5496 70.2984 62.9992 70.2984 54.0784C70.2984 33.0149 63.2944 14.9018 53.7275 9.43994C53.0464 10.7609 51.941 11.8144 50.5889 12.4313C49.2368 13.0481 47.7165 13.1925 46.2725 12.841C44.8285 12.4896 43.5445 11.6628 42.6272 10.4936C41.7098 9.32438 41.2121 7.88068 41.2142 6.39452Z" fill="#FFC700"/>
<path d="M95.3763 78.6959C95.3747 79.9142 95.0373 81.1082 94.401 82.1476C93.7655 83.187 92.8551 84.0309 91.7716 84.5871C90.6873 85.1433 89.4716 85.3901 88.2559 85.3011C87.041 85.2114 85.8742 84.789 84.8836 84.0806C74.3085 90.3042 54.1021 87.1387 35.0888 76.1545C26.9907 71.4809 19.8963 65.851 14.4344 59.8506C14.3032 59.7176 14.2002 59.5594 14.1317 59.3856C14.0632 59.2117 14.0305 59.0259 14.0355 58.8391C14.0406 58.6524 14.0834 58.4685 14.1613 58.2987C14.2391 58.1288 14.3505 57.9765 14.4887 57.8507C14.627 57.7251 14.7891 57.6285 14.9656 57.5671C15.1419 57.5056 15.329 57.4803 15.5155 57.4929C15.7019 57.5055 15.8838 57.5556 16.0504 57.6403C16.2169 57.7249 16.3647 57.8423 16.4848 57.9855C21.7486 63.7705 28.619 69.2237 36.4715 73.7552C54.4208 84.1191 73.3135 87.1948 82.9795 81.9649C82.4762 81.0818 82.1829 80.095 82.1212 79.0803C82.0603 78.0656 82.2334 77.0504 82.6269 76.1131C83.0204 75.1758 83.6238 74.3415 84.3908 73.6746C85.1585 73.0077 86.0681 72.526 87.0514 72.2668C88.0339 72.0075 89.0637 71.9777 90.0598 72.1795C91.056 72.3814 91.9928 72.8095 92.7974 73.4308C93.602 74.0521 94.2527 74.8501 94.6999 75.7629C95.1471 76.6759 95.3787 77.6794 95.3763 78.6959Z" fill="#FFC700"/>
<path d="M102.556 72.1254H98.8744V44.2082H102.556V72.1254ZM138.418 72.1254H134.718L120.663 50.6123V72.1254H116.963V44.2082H120.663L134.756 65.8172V44.2082H138.418V72.1254ZM168.394 59.2213H156.295V69.1152H170.35V72.1254H152.614V44.2082H170.158V47.2376H156.295V56.211H168.394V59.2213ZM192.829 60.8319H186.271V72.1254H182.57V44.2082H191.813C194.957 44.2082 197.373 44.924 199.061 46.3557C200.76 47.7873 201.611 49.8708 201.611 52.6064C201.611 54.3447 201.137 55.8595 200.191 57.1506C199.259 58.4416 197.955 59.4067 196.28 60.0459L202.838 71.8953V72.1254H198.888L192.829 60.8319ZM186.271 57.8217H191.927C193.755 57.8217 195.206 57.3487 196.28 56.4028C197.366 55.4568 197.91 54.1914 197.91 52.6064C197.91 50.8806 197.392 49.5577 196.357 48.6373C195.334 47.717 193.852 47.2504 191.908 47.2376H186.271V57.8217Z" fill="white"/>
</svg>
