<svg width="287" height="130" viewBox="0 0 287 130" fill="none" xmlns="http://www.w3.org/2000/svg">
<path d="M84 76.6016C83.3577 82.1604 81.3238 86.4558 77.8983 89.4879C74.4966 92.4959 69.9649 94 64.3033 94C58.1659 94 53.2418 91.774 49.5308 87.3222C45.8436 82.8703 44 76.9144 44 69.4545V64.401C44 59.516 44.8564 55.2205 46.5692 51.5147C48.3057 47.8088 50.7559 44.9692 53.9198 42.996C57.0836 40.9986 60.7469 40 64.9099 40C70.4288 40 74.8534 41.5642 78.1838 44.6925C81.5141 47.7968 83.4528 52.1043 84 57.615H77.1133C76.5186 53.4278 75.2221 50.3957 73.2239 48.5187C71.2495 46.6417 68.4782 45.7032 64.9099 45.7032C60.5328 45.7032 57.0955 47.3396 54.5977 50.6123C52.1237 53.885 50.8867 58.5414 50.8867 64.5816V69.6711C50.8867 75.3743 52.0642 79.9104 54.4193 83.2794C56.7743 86.6484 60.069 88.3329 64.3033 88.3329C68.1094 88.3329 71.0235 87.4666 73.0455 85.7339C75.0913 83.9772 76.4472 80.9331 77.1133 76.6016H84Z" fill="#1098A8"/>
<path d="M9.37414 62.471C3.79489 52.7423 2.66076 43.637 6.62751 36.7731C11.938 27.5711 25.268 24.3569 42.124 27.426C42.3557 27.4575 42.5785 27.5356 42.7791 27.6556C42.9798 27.7756 43.154 27.935 43.2913 28.1242C43.4287 28.3133 43.5263 28.5284 43.5782 28.7563C43.6302 28.9842 43.6354 29.2203 43.5936 29.4503C43.5519 29.6803 43.4639 29.8995 43.3351 30.0946C43.2063 30.2897 43.0393 30.4566 42.8442 30.5854C42.6491 30.7142 42.4299 30.8021 42.1999 30.8439C41.9699 30.8856 41.7338 30.8804 41.5059 30.8284C25.9184 27.9904 14.0343 30.8553 9.62139 38.5039C6.36951 44.1315 7.34776 51.9898 12.3734 60.7564C12.4997 60.9538 12.5846 61.1748 12.6229 61.406C12.6612 61.6371 12.6522 61.8737 12.5964 62.1013C12.5406 62.3289 12.4391 62.5428 12.2982 62.73C12.1572 62.9172 11.9797 63.0739 11.7765 63.1905C11.5732 63.307 11.3483 63.3811 11.1156 63.4082C10.8828 63.4353 10.6469 63.4148 10.4223 63.3481C10.1977 63.2813 9.98896 63.1696 9.80879 63.0198C9.62861 62.8699 9.48074 62.6851 9.37414 62.4764V62.471ZM89.5691 29.8501C99.4323 29.9791 106.533 33.0536 109.731 38.5899C114.138 46.217 110.698 57.913 100.496 69.9638C100.333 70.1341 100.206 70.3362 100.123 70.5575C100.04 70.7789 100.004 71.0148 100.016 71.2508C100.028 71.4867 100.088 71.7178 100.192 71.9296C100.297 72.1415 100.444 72.3297 100.624 72.4826C100.804 72.6355 101.014 72.7499 101.24 72.8188C101.466 72.8877 101.704 72.9095 101.938 72.883C102.173 72.8565 102.4 72.7822 102.605 72.6647C102.81 72.5472 102.989 72.389 103.13 72.1998C114.17 59.16 118.024 46.045 112.725 36.8591C108.822 30.1028 100.577 26.5391 89.6175 26.394C89.3828 26.3783 89.1474 26.4106 88.9256 26.4889C88.7039 26.5673 88.5004 26.69 88.3276 26.8496C88.1548 27.0092 88.0164 27.2023 87.9208 27.4172C87.8252 27.6321 87.7743 27.8642 87.7714 28.0994C87.7685 28.3345 87.8135 28.5679 87.9038 28.7851C87.994 29.0022 88.1276 29.1988 88.2963 29.3626C88.4651 29.5265 88.6655 29.6542 88.8852 29.738C89.105 29.8218 89.3395 29.86 89.5745 29.8501H89.5691ZM79.6039 111.76C79.4091 111.643 79.1931 111.565 78.9683 111.531C78.7434 111.497 78.5141 111.508 78.2935 111.563C78.0729 111.618 77.8652 111.716 77.6824 111.851C77.4996 111.986 77.3453 112.156 77.2281 112.351C72.2079 120.698 66.0481 125.246 59.7056 125.246C50.8799 125.246 42.4626 116.393 37.1306 101.499C37.0594 101.278 36.9445 101.074 36.7929 100.899C36.6412 100.723 36.4558 100.58 36.2478 100.478C36.0397 100.375 35.8132 100.316 35.5817 100.303C35.3502 100.29 35.1185 100.323 34.9002 100.401C34.6819 100.48 34.4815 100.601 34.311 100.758C34.1404 100.915 34.0032 101.105 33.9074 101.316C33.8117 101.527 33.7593 101.755 33.7534 101.987C33.7476 102.219 33.7884 102.45 33.8734 102.665C39.6408 118.78 49.0846 128.702 59.6949 128.702C67.4349 128.702 74.5998 123.424 80.1898 114.136C80.307 113.941 80.3847 113.725 80.4184 113.5C80.4521 113.275 80.4412 113.046 80.3863 112.825C80.3314 112.605 80.2336 112.397 80.0984 112.214C79.9632 112.031 79.7934 111.877 79.5985 111.76H79.6039ZM119.142 97.817C119.14 99.3372 118.719 100.827 117.925 102.124C117.132 103.421 115.996 104.474 114.644 105.168C113.291 105.862 111.774 106.17 110.258 106.059C108.741 105.947 107.285 105.42 106.049 104.536C92.8533 112.303 67.6391 108.352 43.9139 94.6458C33.8089 88.8139 24.9563 81.7888 18.1408 74.3014C17.9771 74.1354 17.8486 73.938 17.7631 73.7211C17.6775 73.5042 17.6367 73.2723 17.6431 73.0392C17.6494 72.8061 17.7027 72.5768 17.7999 72.3648C17.8971 72.1529 18.0361 71.9628 18.2085 71.8059C18.381 71.649 18.5834 71.5286 18.8035 71.4519C19.0237 71.3751 19.2571 71.3437 19.4897 71.3594C19.7223 71.3751 19.9494 71.4376 20.1572 71.5432C20.3651 71.6488 20.5494 71.7954 20.6993 71.974C27.2675 79.1926 35.8406 85.9974 45.6393 91.6519C68.0369 104.584 91.6116 108.422 103.673 101.897C103.045 100.795 102.679 99.5628 102.602 98.2967C102.526 97.0305 102.742 95.7637 103.233 94.5941C103.724 93.4245 104.477 92.3835 105.434 91.5513C106.392 90.7191 107.528 90.118 108.754 89.7946C109.981 89.4711 111.265 89.4338 112.508 89.6857C113.752 89.9375 114.92 90.4717 115.924 91.2471C116.928 92.0224 117.741 93.018 118.299 94.1572C118.857 95.2964 119.145 96.5485 119.142 97.817ZM16.6841 97.817C16.6868 99.2772 16.3031 100.712 15.5721 101.976C14.8411 103.24 13.7887 104.288 12.5217 105.014C11.2548 105.74 9.81835 106.118 8.35819 106.109C6.89803 106.101 5.46612 105.706 4.20775 104.966C2.94938 104.225 1.90933 103.164 1.19316 101.892C0.476979 100.619 0.110155 99.1801 0.129908 97.7201C0.149661 96.26 0.555287 94.8312 1.30563 93.5786C2.05597 92.3259 3.12431 91.294 4.40226 90.5876C3.14989 75.1238 19.3985 54.3924 43.9623 40.2131C54.164 34.3221 64.785 30.1404 74.7664 28.0065C75.1997 27.9454 75.64 28.0507 75.9988 28.3012C76.3576 28.5517 76.6081 28.9288 76.7001 29.3566C76.7921 29.7844 76.7186 30.2311 76.4944 30.6069C76.2703 30.9827 75.9121 31.2596 75.492 31.382C65.8708 33.446 55.5884 37.4934 45.6876 43.207C22.5536 56.5639 7.26714 75.8171 7.80464 89.5771C8.00889 89.561 8.20776 89.5449 8.41201 89.5449C12.9808 89.5449 16.6895 93.2536 16.6895 97.8224L16.6841 97.817ZM51.4281 7.97925C51.5054 5.83695 52.4107 3.80816 53.9536 2.31991C55.4965 0.831652 57.5566 0 59.7003 0C61.8439 0 63.904 0.831652 65.4469 2.31991C66.9898 3.80816 67.8951 5.83695 67.9724 7.97925C67.9724 8.10287 67.9616 8.22112 67.9563 8.33937C81.6571 15.4183 91.1763 39.5681 91.1763 67.4805C91.1763 78.9561 89.5745 89.9695 86.586 99.5155C86.5265 99.7418 86.4217 99.9537 86.278 100.138C86.1343 100.323 85.9547 100.477 85.75 100.59C85.5452 100.703 85.3196 100.774 85.0869 100.797C84.8541 100.821 84.6189 100.797 84.3956 100.727C84.1723 100.657 83.9654 100.543 83.7876 100.391C83.6097 100.239 83.4645 100.052 83.3608 99.8428C83.2571 99.633 83.1969 99.4044 83.184 99.1708C83.1711 98.9372 83.2057 98.7034 83.2858 98.4835C86.1668 89.2815 87.7201 78.6121 87.7201 67.4805C87.7201 41.1968 78.9804 18.5949 67.0425 11.7794C66.1927 13.4277 64.8133 14.7423 63.1261 15.5121C61.4389 16.2818 59.5419 16.4619 57.74 16.0233C55.9381 15.5848 54.336 14.5532 53.1913 13.0942C52.0465 11.6352 51.4255 9.83372 51.4281 7.97925Z" fill="#FFC700"/>
<path d="M119.013 98.1988C119.011 99.7191 118.59 101.209 117.796 102.506C117.003 103.803 115.867 104.856 114.515 105.55C113.162 106.244 111.645 106.552 110.128 106.441C108.612 106.329 107.156 105.802 105.92 104.918C92.7241 112.684 67.51 108.734 43.7847 95.0276C33.6797 89.1957 24.8271 82.1706 18.0116 74.6832C17.8479 74.5172 17.7194 74.3198 17.6339 74.1029C17.5484 73.886 17.5076 73.6541 17.5139 73.421C17.5202 73.188 17.5736 72.9586 17.6708 72.7467C17.7679 72.5347 17.9069 72.3446 18.0794 72.1877C18.2519 72.0309 18.4542 71.9104 18.6744 71.8337C18.8945 71.757 19.1279 71.7255 19.3606 71.7412C19.5932 71.7569 19.8202 71.8194 20.0281 71.9251C20.2359 72.0307 20.4203 72.1772 20.5701 72.3558C27.1384 79.5745 35.7115 86.3792 45.5101 92.0337C67.9077 104.966 91.4825 108.804 103.544 102.278C102.916 101.176 102.55 99.9447 102.473 98.6785C102.397 97.4123 102.613 96.1455 103.104 94.976C103.595 93.8064 104.348 92.7653 105.305 91.9331C106.263 91.1009 107.398 90.4999 108.625 90.1764C109.851 89.8529 111.136 89.8157 112.379 90.0675C113.622 90.3194 114.791 90.8536 115.795 91.6289C116.799 92.4042 117.611 93.3999 118.169 94.539C118.727 95.6782 119.016 96.9304 119.013 98.1988Z" fill="#FFC700"/>
<path d="M127.972 90H123.378V55.1641H127.972V90ZM172.722 90H168.104L150.567 63.1553V90H145.949V55.1641H150.567L168.152 82.1284V55.1641H172.722V90ZM210.127 73.8979H195.029V86.2437H212.567V90H190.436V55.1641H212.328V58.9443H195.029V70.1416H210.127V73.8979ZM240.617 75.9077H232.434V90H227.816V55.1641H239.349C243.272 55.1641 246.287 56.0573 248.393 57.8438C250.514 59.6302 251.575 62.2301 251.575 65.6436C251.575 67.8128 250.984 69.703 249.804 71.314C248.64 72.925 247.013 74.1292 244.923 74.9268L253.106 89.7129V90H248.177L240.617 75.9077ZM232.434 72.1514H239.492C241.773 72.1514 243.583 71.5612 244.923 70.3809C246.279 69.2005 246.957 67.6214 246.957 65.6436C246.957 63.4902 246.311 61.8394 245.019 60.6909C243.743 59.5425 241.893 58.9603 239.468 58.9443H232.434V72.1514Z" fill="#1098A8"/>
</svg>
