<svg width="173" height="160" viewBox="0 0 173 160" fill="none" xmlns="http://www.w3.org/2000/svg">
<path d="M16.1325 137.13C16.1325 135.473 17.4757 134.13 19.1325 134.13H153.255C154.912 134.13 156.255 135.473 156.255 137.13V146.447H16.1325V137.13Z" fill="white"/>
<path d="M4.79907 150.679C4.79907 149.022 6.14222 147.679 7.79907 147.679H165.619C167.276 147.679 168.619 149.022 168.619 150.679V159.996H4.79907V150.679Z" fill="white"/>
<rect x="20.2538" y="57.7612" width="5.15158" height="73.9046" rx="1" fill="white"/>
<rect x="146.982" y="57.7612" width="5.15158" height="73.9046" rx="1" fill="white"/>
<rect x="139.222" y="57.5889" width="5.15158" height="73.9046" rx="1" fill="white"/>
<rect x="131.14" y="58.1277" width="5.15158" height="73.9046" rx="1" fill="white"/>
<rect x="28.7723" y="57.5889" width="5.15158" height="73.9046" rx="1" fill="white"/>
<rect x="37.3927" y="57.5889" width="5.15158" height="73.9046" rx="1" fill="white"/>
<rect x="15.1021" y="49.1392" width="143.214" height="4.92698" rx="2.46349" fill="white"/>
<path fill-rule="evenodd" clip-rule="evenodd" d="M86.6609 0.115704C86.3687 -0.0385685 86.0192 -0.0385675 85.727 0.115705L0.534648 45.0991C-0.387904 45.5862 -0.0416977 46.9834 1.00156 46.9834H171.386C172.43 46.9834 172.776 45.5862 171.853 45.0991L86.6609 0.115704ZM86.0546 27.4817C89.438 27.4817 92.1808 24.645 92.1808 21.1457C92.1808 17.6465 89.438 14.8098 86.0546 14.8098C82.6712 14.8098 79.9284 17.6465 79.9284 21.1457C79.9284 24.645 82.6712 27.4817 86.0546 27.4817Z" fill="white"/>
<g clip-path="url(#clip0)">
<path d="M121.038 73.0788V116.088L117.94 116.45V66.8828C105.873 67.2515 94.6897 69.2435 86.9541 74.0577C79.2216 69.2435 68.0503 67.2515 55.9806 66.8828V116.45L52.8826 116.088V73.0788H49.7846V119.548H77.843C82.4249 119.548 82.9267 122.646 86.9541 122.646C90.9939 122.646 91.4802 119.548 96.0683 119.548H124.136V73.0788H121.038ZM83.8623 115.351C77.8337 112.959 71.046 111.419 62.1765 110.753V73.4195C69.4629 74.0298 77.654 75.5107 83.8623 79.3738V115.351ZM111.744 110.753C102.875 111.419 96.0869 112.959 90.0583 115.351V79.3738C96.2666 75.5107 104.458 74.0298 111.744 73.4195V110.753Z" fill="#27B3C4"/>
</g>
<defs>
<clipPath id="clip0">
<rect x="49.7846" y="57.5889" width="74.3514" height="74.3514" fill="white"/>
</clipPath>
</defs>
</svg>
