<svg width="30" height="30" viewBox="0 0 30 30" fill="none" xmlns="http://www.w3.org/2000/svg">
<path d="M7.5 15C7.5 17.7575 9.7425 20 12.5 20C14.7013 20 16.5525 18.5612 17.2188 16.5825L19.9987 14.9688L20 15C20 19.1425 16.6425 22.5 12.5 22.5C8.3575 22.5 5 19.1425 5 15C5 10.8575 8.3575 7.5 12.5 7.5C13.855 7.5 15.1225 7.865 16.2188 8.4925L13.4563 10.0962C13.1463 10.0362 12.8275 10 12.5 10C9.7425 10 7.5 12.2425 7.5 15ZM12.5 12.5C11.1187 12.5 10 13.62 10 15C10 16.38 11.1187 17.5 12.5 17.5C13.8813 17.5 15 16.38 15 15L14.9975 14.9812L19.1975 12.5437C20.4175 11.8375 22.5775 12.1238 23.8363 12.7425L30 9.16375L26.0525 7.2025L26.2638 2.6625L20.0825 6.25C19.995 7.65125 19.165 9.67 17.9513 10.3762L13.7225 12.8313C13.36 12.6275 12.9462 12.5 12.5 12.5ZM22.4938 14.8888L22.5 15C22.5 20.5138 18.0138 25 12.5 25C6.98625 25 2.5 20.5138 2.5 15C2.5 9.48625 6.98625 5 12.5 5C14.3438 5 16.0662 5.51 17.5513 6.38375C17.9688 5.65125 18.0863 4.45375 17.7337 3.65875C16.14 2.9225 14.3713 2.5 12.5 2.5C5.59625 2.5 0 8.09625 0 15C0 21.9037 5.59625 27.5 12.5 27.5C19.0413 27.5 24.4013 22.4737 24.9463 16.0725C24.57 15.4688 23.6138 14.7463 22.4938 14.8888Z" fill="#FEB221"/>
</svg>
