<svg width="150" height="150" viewBox="0 0 150 150" fill="none" xmlns="http://www.w3.org/2000/svg">
<path d="M37.5 75C37.5 88.7875 48.7125 100 62.5 100C73.5062 100 82.7625 92.8063 86.0938 82.9125L99.9937 74.8438L100 75C100 95.7125 83.2125 112.5 62.5 112.5C41.7875 112.5 25 95.7125 25 75C25 54.2875 41.7875 37.5 62.5 37.5C69.275 37.5 75.6125 39.325 81.0938 42.4625L67.2812 50.4813C65.7312 50.1813 64.1375 50 62.5 50C48.7125 50 37.5 61.2125 37.5 75ZM62.5 62.5C55.5938 62.5 50 68.1 50 75C50 81.9 55.5938 87.5 62.5 87.5C69.4062 87.5 75 81.9 75 75L74.9875 74.9063L95.9875 62.7188C102.087 59.1875 112.888 60.6188 119.181 63.7125L150 45.8188L130.262 36.0125L131.319 13.3125L100.412 31.25C99.975 38.2563 95.825 48.35 89.7562 51.8813L68.6125 64.1563C66.8 63.1375 64.7312 62.5 62.5 62.5ZM112.469 74.4438L112.5 75C112.5 102.569 90.0687 125 62.5 125C34.9313 125 12.5 102.569 12.5 75C12.5 47.4313 34.9313 25 62.5 25C71.7188 25 80.3313 27.55 87.7563 31.9188C89.8438 28.2563 90.4313 22.2688 88.6688 18.2938C80.7 14.6125 71.8562 12.5 62.5 12.5C27.9813 12.5 0 40.4813 0 75C0 109.519 27.9813 137.5 62.5 137.5C95.2063 137.5 122.006 112.369 124.731 80.3625C122.85 77.3438 118.069 73.7313 112.469 74.4438Z" fill="white"/>
</svg>