<svg width="50" height="50" viewBox="0 0 50 50" fill="none" xmlns="http://www.w3.org/2000/svg">
<path d="M39.5833 0H10.4167C4.66458 0 0 4.66458 0 10.4167V39.5833C0 45.3354 4.66458 50 10.4167 50H39.5833C45.3375 50 50 45.3354 50 39.5833V10.4167C50 4.66458 45.3375 0 39.5833 0ZM39.2937 19.2437C39.7292 28.8625 32.5562 39.5875 19.8562 39.5875C15.9937 39.5875 12.4 38.4562 9.37292 36.5146C13.0021 36.9417 16.6229 35.9354 19.4979 33.6833C16.5042 33.6271 13.9792 31.65 13.1104 28.9333C14.1833 29.1375 15.2375 29.0771 16.1979 28.8167C12.9083 28.1562 10.6396 25.1937 10.7125 22.025C11.6333 22.5375 12.6896 22.8458 13.8083 22.8812C10.7646 20.8458 9.90208 16.825 11.6917 13.75C15.0646 17.8875 20.1042 20.6104 25.7875 20.8958C24.7896 16.6187 28.0375 12.5 32.4521 12.5C34.4167 12.5 36.1958 13.3292 37.4417 14.6604C39 14.3542 40.4646 13.7854 41.7875 13.0021C41.275 14.6 40.1917 15.9396 38.7812 16.7854C40.1646 16.6187 41.4833 16.2521 42.7083 15.7083C41.7937 17.075 40.6333 18.2792 39.2937 19.2437Z" fill="white"/>
</svg>
