<svg width="30" height="30" viewBox="0 0 30 30" fill="none" xmlns="http://www.w3.org/2000/svg">
<path d="M12.6475 20.08C15.5138 19.4187 18.1825 18.8388 16.89 16.3988C12.9575 8.97125 15.8475 5 20 5C24.235 5 27.055 9.12375 23.11 16.3988C21.7788 18.8538 24.5462 19.4325 27.3525 20.08C29.835 20.6537 30 21.8675 30 23.9688L29.9963 25H10.0037C10.0037 22.255 9.78375 20.7412 12.6475 20.08ZM0.0025 25H7.50375C7.46875 16.8225 11.2475 20.3787 11.2475 13.8737C11.2475 11.3625 9.60875 10 7.5 10C4.385 10 2.2175 12.9787 5.1675 18.5487C6.13625 20.3787 4.13625 20.8138 1.98625 21.31C0.12375 21.74 0 22.65 0 24.2262L0.0025 25Z" fill="#FEB221"/>
</svg>
