<svg width="152" height="150" viewBox="0 0 152 150" fill="none" xmlns="http://www.w3.org/2000/svg">
<g clip-path="url(#clip0)">
<path d="M63.8934 100.4C78.3733 97.0937 91.8555 94.1937 85.326 81.9937C65.4595 44.8563 80.0594 25 101.037 25C122.432 25 136.678 45.6187 116.749 81.9937C110.023 94.2687 124.004 97.1625 138.181 100.4C150.722 103.269 151.556 109.337 151.556 119.844L151.537 125H50.5376C50.5376 111.275 49.4262 103.706 63.8934 100.4ZM0.0126297 125H37.9079C37.7311 84.1125 56.8208 101.894 56.8208 69.3687C56.8208 56.8125 48.5421 50 37.889 50C22.1524 50 11.2025 64.8937 26.1055 92.7437C30.9995 101.894 20.8958 104.069 10.0343 106.55C0.625168 108.7 0 113.25 0 121.131L0.0126297 125Z" fill="white"/>
</g>
<defs>
<clipPath id="clip0">
<rect width="151.556" height="150" fill="white"/>
</clipPath>
</defs>
</svg>
