<svg width="157" height="169" viewBox="0 0 157 169" fill="none" xmlns="http://www.w3.org/2000/svg">
<path d="M109.9 100.354C109.06 107.637 106.399 113.264 101.917 117.236C97.4664 121.177 91.5374 123.148 84.1301 123.148C76.1004 123.148 69.658 120.231 64.8028 114.399C59.9787 108.567 57.5667 100.764 57.5667 90.991V84.3706C57.5667 77.9709 58.6872 72.3434 60.928 67.4885C63.1999 62.6334 66.4056 58.9134 70.545 56.3283C74.6843 53.7116 79.4772 52.4033 84.9238 52.4033C92.1443 52.4033 97.9332 54.4525 102.29 58.5509C106.648 62.6178 109.184 68.2609 109.9 75.4803H100.89C100.112 69.9948 98.4156 66.0225 95.8012 63.5635C93.2181 61.1044 89.5922 59.8749 84.9238 59.8749C79.1971 59.8749 74.6999 62.0187 71.4319 66.3062C68.1951 70.5938 66.5767 76.694 66.5767 84.6071V91.2747C66.5767 98.7463 68.1174 104.689 71.1986 109.103C74.2797 113.516 78.5903 115.723 84.1301 115.723C89.1098 115.723 92.9224 114.588 95.5679 112.318C98.2445 110.017 100.018 106.029 100.89 100.354H109.9Z" fill="white"/>
<path d="M12.2645 81.8418C4.96495 69.0965 3.48113 57.1678 8.67096 48.1756C15.6189 36.1203 33.0589 31.9094 55.1122 35.9302C55.4153 35.9714 55.7068 36.0738 55.9693 36.231C56.2319 36.3882 56.4598 36.597 56.6394 36.8449C56.8192 37.0926 56.9469 37.3744 57.0148 37.673C57.0828 37.9715 57.0896 38.2808 57.0349 38.5822C56.9804 38.8835 56.8652 39.1707 56.6967 39.4263C56.5282 39.6818 56.3097 39.9005 56.0545 40.0692C55.7992 40.238 55.5124 40.3531 55.2115 40.4079C54.9106 40.4625 54.6017 40.4557 54.3035 40.3876C33.9099 36.6696 18.3615 40.4228 12.588 50.4431C8.33341 57.8157 9.61329 68.1107 16.1885 79.5956C16.3537 79.8542 16.4648 80.1437 16.5149 80.4466C16.565 80.7494 16.5533 81.0593 16.4803 81.3575C16.4073 81.6557 16.2745 81.9359 16.0901 82.1812C15.9056 82.4264 15.6734 82.6317 15.4076 82.7844C15.1416 82.9371 14.8473 83.0341 14.5429 83.0696C14.2383 83.1051 13.9297 83.0783 13.6358 82.9909C13.342 82.9034 13.0689 82.7571 12.8331 82.5608C12.5974 82.3644 12.4039 82.1223 12.2645 81.8489V81.8418ZM117.186 39.1059C130.091 39.2749 139.381 43.3028 143.565 50.5558C149.331 60.5478 144.83 75.8705 131.482 91.658C131.269 91.8811 131.103 92.1459 130.994 92.4358C130.886 92.7258 130.839 93.0349 130.854 93.3441C130.87 93.6531 130.948 93.9559 131.085 94.2333C131.222 94.511 131.414 94.7575 131.65 94.9578C131.885 95.1581 132.16 95.308 132.456 95.3983C132.751 95.4885 133.063 95.5171 133.369 95.4824C133.676 95.4477 133.973 95.3503 134.242 95.1964C134.51 95.0424 134.744 94.8352 134.928 94.5873C149.372 77.5042 154.415 60.3225 147.482 48.2883C142.375 39.437 131.588 34.7683 117.25 34.5782C116.942 34.5576 116.634 34.5999 116.344 34.7025C116.054 34.8052 115.788 34.966 115.562 35.175C115.336 35.3841 115.155 35.6371 115.03 35.9186C114.905 36.2002 114.838 36.5043 114.834 36.8124C114.83 37.1204 114.889 37.4262 115.007 37.7107C115.125 37.9951 115.3 38.2527 115.521 38.4673C115.742 38.682 116.004 38.8493 116.291 38.9591C116.579 39.0689 116.886 39.1189 117.193 39.1059H117.186ZM104.148 146.414C103.894 146.261 103.611 146.159 103.317 146.114C103.023 146.07 102.723 146.084 102.434 146.156C102.145 146.228 101.874 146.357 101.634 146.533C101.395 146.71 101.193 146.933 101.04 147.189C94.472 158.124 86.4129 164.082 78.1148 164.082C66.5678 164.082 55.5552 152.484 48.5792 132.972C48.486 132.682 48.3357 132.415 48.1373 132.186C47.9389 131.955 47.6963 131.768 47.4242 131.634C47.1519 131.499 46.8556 131.422 46.5527 131.405C46.2498 131.388 45.9467 131.431 45.6611 131.533C45.3755 131.637 45.1133 131.795 44.8902 132.001C44.667 132.206 44.4875 132.455 44.3621 132.732C44.2369 133.008 44.1684 133.307 44.1607 133.611C44.1531 133.915 44.2065 134.217 44.3177 134.499C51.8633 155.611 64.219 168.61 78.1008 168.61C88.2273 168.61 97.6014 161.695 104.915 149.527C105.068 149.272 105.17 148.989 105.214 148.694C105.258 148.399 105.244 148.099 105.172 147.809C105.1 147.521 104.972 147.249 104.795 147.009C104.618 146.769 104.396 146.568 104.141 146.414H104.148ZM155.877 128.148C155.875 130.139 155.324 132.091 154.285 133.79C153.248 135.49 151.761 136.869 149.993 137.778C148.222 138.687 146.238 139.091 144.254 138.945C142.269 138.799 140.365 138.108 138.747 136.95C121.483 147.126 88.4945 141.95 57.454 123.993C44.2333 116.353 32.6511 107.15 23.7342 97.3406C23.52 97.1231 23.3519 96.8645 23.24 96.5803C23.128 96.2962 23.0747 95.9924 23.083 95.687C23.0913 95.3816 23.161 95.0812 23.2882 94.8035C23.4153 94.5259 23.5972 94.2768 23.8228 94.0713C24.0484 93.8657 24.3133 93.708 24.6012 93.6075C24.8893 93.5069 25.1947 93.4658 25.499 93.4863C25.8033 93.5069 26.1004 93.5888 26.3723 93.7271C26.6443 93.8655 26.8854 94.0575 27.0816 94.2915C35.6749 103.748 46.8914 112.663 59.7114 120.071C89.0149 137.013 119.858 142.041 135.639 133.493C134.817 132.049 134.338 130.435 134.238 128.776C134.138 127.117 134.421 125.458 135.063 123.926C135.706 122.393 136.691 121.03 137.943 119.939C139.196 118.849 140.682 118.062 142.286 117.638C143.892 117.214 145.572 117.165 147.198 117.495C148.826 117.825 150.354 118.525 151.667 119.541C152.981 120.556 154.044 121.861 154.774 123.353C155.505 124.846 155.881 126.486 155.877 128.148ZM21.8283 128.148C21.8319 130.061 21.3299 131.941 20.3735 133.596C19.4171 135.252 18.0402 136.625 16.3825 137.576C14.725 138.528 12.8456 139.023 10.9353 139.011C9.02489 139.001 7.15148 138.483 5.50511 137.514C3.85874 136.543 2.49801 135.153 1.56102 133.486C0.624021 131.819 0.144093 129.934 0.169937 128.021C0.19578 126.108 0.726474 124.236 1.70817 122.595C2.68986 120.954 4.08761 119.602 5.75959 118.677C4.12108 98.418 25.3797 71.2583 57.5173 52.6823C70.8645 44.9646 84.7604 39.4863 97.8193 36.6907C98.3862 36.6106 98.9623 36.7486 99.4317 37.0768C99.9012 37.4049 100.229 37.899 100.349 38.4594C100.47 39.0199 100.373 39.6051 100.08 40.0974C99.7869 40.5897 99.3183 40.9525 98.7687 41.1128C86.1809 43.8168 72.7281 49.1193 59.7746 56.6045C29.5076 74.1031 9.50781 99.3263 10.211 117.353C10.4783 117.332 10.7385 117.311 11.0057 117.311C16.9832 117.311 21.8354 122.169 21.8354 128.155L21.8283 128.148ZM67.2851 10.4534C67.3862 7.64686 68.5706 4.98899 70.5893 3.03926C72.6079 1.08953 75.3032 0 78.1079 0C80.9124 0 83.6077 1.08953 85.6263 3.03926C87.645 4.98899 88.8294 7.64686 88.9305 10.4534C88.9305 10.6154 88.9164 10.7703 88.9095 10.9252C106.835 20.1992 119.289 51.8373 119.289 88.4047C119.289 103.439 117.193 117.867 113.283 130.373C113.205 130.669 113.068 130.947 112.88 131.189C112.692 131.431 112.457 131.633 112.19 131.781C111.922 131.929 111.626 132.022 111.322 132.052C111.017 132.083 110.71 132.052 110.418 131.96C110.125 131.868 109.855 131.719 109.622 131.52C109.389 131.321 109.199 131.076 109.064 130.802C108.928 130.527 108.849 130.227 108.832 129.921C108.815 129.615 108.861 129.309 108.966 129.021C112.735 116.966 114.767 102.988 114.767 88.4047C114.767 53.971 103.333 24.3608 87.7139 15.4319C86.6021 17.5913 84.7974 19.3135 82.5899 20.322C80.3825 21.3304 77.9006 21.5664 75.5431 20.9918C73.1856 20.4173 71.0896 19.0658 69.5919 17.1544C68.0941 15.243 67.2817 12.8829 67.2851 10.4534Z" fill="#FFC700"/>
<path d="M155.709 128.648C155.706 130.64 155.155 132.592 154.116 134.291C153.079 135.99 151.593 137.37 149.824 138.279C148.054 139.188 146.069 139.591 144.084 139.446C142.101 139.299 140.196 138.609 138.579 137.451C121.314 147.625 88.3256 142.45 57.285 124.494C44.0643 116.853 32.4821 107.65 23.5652 97.8408C23.351 97.6234 23.1829 97.3647 23.071 97.0806C22.9592 96.7964 22.9058 96.4926 22.914 96.1872C22.9223 95.882 22.9921 95.5815 23.1193 95.3039C23.2464 95.0261 23.4282 94.7771 23.6539 94.5715C23.8796 94.3661 24.1443 94.2083 24.4324 94.1078C24.7203 94.0073 25.0257 93.966 25.3301 93.9866C25.6345 94.0072 25.9314 94.089 26.2034 94.2275C26.4753 94.3659 26.7166 94.5578 26.9126 94.7918C35.5061 104.249 46.7226 113.163 59.5424 120.571C88.8459 137.514 119.69 142.542 135.47 133.992C134.648 132.548 134.17 130.935 134.069 129.277C133.969 127.618 134.252 125.958 134.894 124.426C135.537 122.894 136.522 121.53 137.774 120.44C139.027 119.349 140.512 118.562 142.118 118.138C143.722 117.714 145.403 117.666 147.029 117.995C148.655 118.325 150.185 119.025 151.498 120.041C152.812 121.057 153.874 122.361 154.604 123.853C155.334 125.346 155.713 126.986 155.709 128.648Z" fill="#FFC700"/>
</svg>
