<svg width="20" height="20" viewBox="0 0 20 20" fill="none" xmlns="http://www.w3.org/2000/svg">
<rect width="20" height="20" rx="4" fill="#1F2635"/>
<mask id="path-2-outside-1" maskUnits="userSpaceOnUse" x="1" y="0" width="18" height="20" fill="black">
<rect fill="white" x="1" width="18" height="20"/>
<path d="M3.24289 9.73707C2.49282 8.37643 2.34035 7.10298 2.87363 6.14301C3.58757 4.85604 5.37965 4.40651 7.64576 4.83574C7.6769 4.84015 7.70686 4.85107 7.73383 4.86786C7.76081 4.88464 7.78423 4.90693 7.80269 4.93339C7.82116 4.95984 7.83428 4.98992 7.84126 5.0218C7.84825 5.05367 7.84895 5.08669 7.84333 5.11886C7.83772 5.15103 7.82589 5.18168 7.80857 5.20897C7.79126 5.23626 7.76881 5.2596 7.74258 5.27761C7.71635 5.29563 7.68688 5.30792 7.65596 5.31377C7.62504 5.3196 7.5933 5.31887 7.56266 5.3116C5.46709 4.91468 3.8694 5.31536 3.27613 6.38508C2.83895 7.17214 2.97046 8.27119 3.64611 9.49727C3.66309 9.52487 3.6745 9.55578 3.67965 9.58812C3.6848 9.62044 3.68359 9.65353 3.67609 9.68536C3.66859 9.71719 3.65494 9.74711 3.636 9.77329C3.61704 9.79947 3.59318 9.82139 3.56586 9.8377C3.53853 9.85399 3.50829 9.86435 3.47701 9.86814C3.44571 9.87193 3.414 9.86907 3.3838 9.85974C3.35361 9.85039 3.32555 9.83477 3.30132 9.81382C3.2771 9.79286 3.25722 9.76626 3.24289 9.73707ZM14.0242 5.17477C15.3502 5.19282 16.3049 5.62281 16.7348 6.39711C17.3273 7.46382 16.8648 9.09959 15.4932 10.785C15.4713 10.8088 15.4543 10.8371 15.4431 10.868C15.4319 10.899 15.4271 10.932 15.4287 10.965C15.4303 10.998 15.4384 11.0303 15.4524 11.0599C15.4665 11.0896 15.4863 11.1159 15.5105 11.1373C15.5347 11.1587 15.5629 11.1747 15.5933 11.1843C15.6236 11.1939 15.6556 11.197 15.6871 11.1933C15.7187 11.1896 15.7492 11.1792 15.7768 11.1627C15.8043 11.1463 15.8284 11.1242 15.8474 11.0977C17.3316 9.274 17.8497 7.43976 17.1373 6.15504C16.6126 5.21012 15.5041 4.7117 14.0307 4.69141C13.9992 4.68921 13.9675 4.69373 13.9377 4.70468C13.9079 4.71565 13.8806 4.73281 13.8573 4.75513C13.8341 4.77745 13.8155 4.80446 13.8026 4.83451C13.7898 4.86457 13.7829 4.89703 13.7826 4.92992C13.7822 4.96281 13.7882 4.99545 13.8004 5.02583C13.8125 5.05619 13.8304 5.08368 13.8531 5.10659C13.8758 5.12952 13.9028 5.14738 13.9323 5.1591C13.9618 5.17082 13.9926 5.17616 14.0242 5.17477ZM12.6845 16.6305C12.6583 16.6142 12.6293 16.6033 12.5991 16.5985C12.5688 16.5937 12.538 16.5953 12.5084 16.603C12.4787 16.6107 12.4508 16.6244 12.4262 16.6433C12.4016 16.6621 12.3809 16.6859 12.3651 16.7132C11.6902 17.8806 10.8621 18.5167 10.0094 18.5167C8.82289 18.5167 7.69128 17.2785 6.97445 15.1954C6.96487 15.1645 6.94943 15.136 6.92905 15.1115C6.90865 15.0869 6.88373 15.0669 6.85576 15.0526C6.82779 15.0382 6.79734 15.03 6.76621 15.0282C6.73509 15.0264 6.70394 15.031 6.67459 15.0419C6.64525 15.0529 6.6183 15.0699 6.59538 15.0918C6.57245 15.1138 6.554 15.1403 6.54112 15.1699C6.52826 15.1994 6.52121 15.2312 6.52042 15.2637C6.51964 15.2961 6.52512 15.3285 6.53655 15.3585C7.31192 17.6123 8.58153 19 10.008 19C11.0485 19 12.0118 18.2618 12.7633 16.9628C12.779 16.9356 12.7895 16.9053 12.794 16.8739C12.7986 16.8424 12.7971 16.8104 12.7897 16.7795C12.7823 16.7487 12.7692 16.7196 12.751 16.694C12.7328 16.6684 12.7107 16.6469 12.6845 16.6305ZM18 14.6805C17.9997 14.8931 17.9431 15.1015 17.8364 15.2829C17.7298 15.4643 17.5771 15.6115 17.3953 15.7086C17.2134 15.8056 17.0094 15.8487 16.8056 15.8332C16.6017 15.8175 16.406 15.7438 16.2398 15.6202C14.4658 16.7065 11.076 16.1539 7.88639 14.237C6.52788 13.4213 5.33774 12.4388 4.42147 11.3916C4.39946 11.3684 4.38219 11.3408 4.37069 11.3105C4.35919 11.2801 4.3537 11.2477 4.35456 11.2151C4.35541 11.1825 4.36257 11.1504 4.37564 11.1208C4.38871 11.0912 4.4074 11.0646 4.43057 11.0426C4.45376 11.0207 4.48097 11.0038 4.51057 10.9931C4.54017 10.9824 4.57155 10.978 4.60282 10.9802C4.63409 10.9824 4.66462 10.9911 4.69256 11.0059C4.72051 11.0207 4.74528 11.0412 4.76544 11.0661C5.64846 12.0757 6.80102 13.0274 8.11835 13.8182C11.1295 15.6269 14.2988 16.1637 15.9204 15.2511C15.8359 15.097 15.7867 14.9247 15.7764 14.7476C15.7662 14.5705 15.7952 14.3933 15.8612 14.2297C15.9272 14.0662 16.0284 13.9206 16.1571 13.8042C16.2859 13.6878 16.4386 13.6037 16.6034 13.5585C16.7684 13.5132 16.941 13.508 17.1081 13.5433C17.2754 13.5785 17.4324 13.6532 17.5674 13.7616C17.7023 13.8701 17.8116 14.0093 17.8867 14.1686C17.9617 14.328 18.0004 14.5031 18 14.6805ZM4.22563 14.6805C4.226 14.8847 4.17441 15.0854 4.07614 15.2622C3.97786 15.4389 3.83638 15.5855 3.66604 15.687C3.49572 15.7886 3.30261 15.8414 3.10631 15.8402C2.91 15.8391 2.7175 15.7838 2.54832 15.6803C2.37915 15.5767 2.23933 15.4283 2.14304 15.2504C2.04676 15.0724 1.99745 14.8711 2.0001 14.6669C2.00276 14.4627 2.05729 14.2629 2.15816 14.0877C2.25904 13.9125 2.40267 13.7682 2.57447 13.6694C2.40611 11.5067 4.59056 8.60721 7.89289 6.62412C9.2644 5.80022 10.6923 5.21537 12.0342 4.91693C12.0924 4.90839 12.1516 4.92311 12.1999 4.95815C12.2481 4.99318 12.2818 5.04592 12.2941 5.10575C12.3065 5.16559 12.2966 5.22806 12.2665 5.28062C12.2364 5.33318 12.1882 5.3719 12.1317 5.38902C10.8383 5.67769 9.4559 6.24375 8.12484 7.04284C5.01473 8.91091 2.95963 11.6036 3.03189 13.5281C3.05935 13.5258 3.08608 13.5236 3.11354 13.5236C3.72777 13.5236 4.22636 14.0423 4.22636 14.6812L4.22563 14.6805ZM8.89659 2.11596C8.90698 1.81634 9.02869 1.5326 9.23612 1.32446C9.44354 1.11631 9.7205 1 10.0087 1C10.2969 1 10.5738 1.11631 10.7813 1.32446C10.9887 1.5326 11.1104 1.81634 11.1208 2.11596C11.1208 2.13325 11.1193 2.14979 11.1186 2.16633C12.9606 3.15637 14.2403 6.53391 14.2403 10.4377C14.2403 12.0426 14.025 13.583 13.6232 14.918C13.6152 14.9497 13.6011 14.9793 13.5818 15.0051C13.5625 15.031 13.5383 15.0525 13.5108 15.0683C13.4833 15.0841 13.4529 15.094 13.4217 15.0973C13.3904 15.1006 13.3587 15.0973 13.3287 15.0875C13.2987 15.0777 13.2709 15.0617 13.247 15.0405C13.2231 15.0192 13.2035 14.9931 13.1896 14.9638C13.1757 14.9345 13.1676 14.9025 13.1658 14.8698C13.1641 14.8372 13.1687 14.8045 13.1795 14.7737C13.5668 13.4867 13.7757 11.9945 13.7757 10.4377C13.7757 6.7617 12.6007 3.60064 10.9958 2.64744C10.8815 2.87797 10.6961 3.06183 10.4693 3.16949C10.2424 3.27714 9.9874 3.30233 9.74516 3.24099C9.50291 3.17966 9.28753 3.03538 9.13363 2.83133C8.97973 2.62727 8.89624 2.37532 8.89659 2.11596Z"/>
</mask>
<path d="M3.24289 9.73707C2.49282 8.37643 2.34035 7.10298 2.87363 6.14301C3.58757 4.85604 5.37965 4.40651 7.64576 4.83574C7.6769 4.84015 7.70686 4.85107 7.73383 4.86786C7.76081 4.88464 7.78423 4.90693 7.80269 4.93339C7.82116 4.95984 7.83428 4.98992 7.84126 5.0218C7.84825 5.05367 7.84895 5.08669 7.84333 5.11886C7.83772 5.15103 7.82589 5.18168 7.80857 5.20897C7.79126 5.23626 7.76881 5.2596 7.74258 5.27761C7.71635 5.29563 7.68688 5.30792 7.65596 5.31377C7.62504 5.3196 7.5933 5.31887 7.56266 5.3116C5.46709 4.91468 3.8694 5.31536 3.27613 6.38508C2.83895 7.17214 2.97046 8.27119 3.64611 9.49727C3.66309 9.52487 3.6745 9.55578 3.67965 9.58812C3.6848 9.62044 3.68359 9.65353 3.67609 9.68536C3.66859 9.71719 3.65494 9.74711 3.636 9.77329C3.61704 9.79947 3.59318 9.82139 3.56586 9.8377C3.53853 9.85399 3.50829 9.86435 3.47701 9.86814C3.44571 9.87193 3.414 9.86907 3.3838 9.85974C3.35361 9.85039 3.32555 9.83477 3.30132 9.81382C3.2771 9.79286 3.25722 9.76626 3.24289 9.73707ZM14.0242 5.17477C15.3502 5.19282 16.3049 5.62281 16.7348 6.39711C17.3273 7.46382 16.8648 9.09959 15.4932 10.785C15.4713 10.8088 15.4543 10.8371 15.4431 10.868C15.4319 10.899 15.4271 10.932 15.4287 10.965C15.4303 10.998 15.4384 11.0303 15.4524 11.0599C15.4665 11.0896 15.4863 11.1159 15.5105 11.1373C15.5347 11.1587 15.5629 11.1747 15.5933 11.1843C15.6236 11.1939 15.6556 11.197 15.6871 11.1933C15.7187 11.1896 15.7492 11.1792 15.7768 11.1627C15.8043 11.1463 15.8284 11.1242 15.8474 11.0977C17.3316 9.274 17.8497 7.43976 17.1373 6.15504C16.6126 5.21012 15.5041 4.7117 14.0307 4.69141C13.9992 4.68921 13.9675 4.69373 13.9377 4.70468C13.9079 4.71565 13.8806 4.73281 13.8573 4.75513C13.8341 4.77745 13.8155 4.80446 13.8026 4.83451C13.7898 4.86457 13.7829 4.89703 13.7826 4.92992C13.7822 4.96281 13.7882 4.99545 13.8004 5.02583C13.8125 5.05619 13.8304 5.08368 13.8531 5.10659C13.8758 5.12952 13.9028 5.14738 13.9323 5.1591C13.9618 5.17082 13.9926 5.17616 14.0242 5.17477ZM12.6845 16.6305C12.6583 16.6142 12.6293 16.6033 12.5991 16.5985C12.5688 16.5937 12.538 16.5953 12.5084 16.603C12.4787 16.6107 12.4508 16.6244 12.4262 16.6433C12.4016 16.6621 12.3809 16.6859 12.3651 16.7132C11.6902 17.8806 10.8621 18.5167 10.0094 18.5167C8.82289 18.5167 7.69128 17.2785 6.97445 15.1954C6.96487 15.1645 6.94943 15.136 6.92905 15.1115C6.90865 15.0869 6.88373 15.0669 6.85576 15.0526C6.82779 15.0382 6.79734 15.03 6.76621 15.0282C6.73509 15.0264 6.70394 15.031 6.67459 15.0419C6.64525 15.0529 6.6183 15.0699 6.59538 15.0918C6.57245 15.1138 6.554 15.1403 6.54112 15.1699C6.52826 15.1994 6.52121 15.2312 6.52042 15.2637C6.51964 15.2961 6.52512 15.3285 6.53655 15.3585C7.31192 17.6123 8.58153 19 10.008 19C11.0485 19 12.0118 18.2618 12.7633 16.9628C12.779 16.9356 12.7895 16.9053 12.794 16.8739C12.7986 16.8424 12.7971 16.8104 12.7897 16.7795C12.7823 16.7487 12.7692 16.7196 12.751 16.694C12.7328 16.6684 12.7107 16.6469 12.6845 16.6305ZM18 14.6805C17.9997 14.8931 17.9431 15.1015 17.8364 15.2829C17.7298 15.4643 17.5771 15.6115 17.3953 15.7086C17.2134 15.8056 17.0094 15.8487 16.8056 15.8332C16.6017 15.8175 16.406 15.7438 16.2398 15.6202C14.4658 16.7065 11.076 16.1539 7.88639 14.237C6.52788 13.4213 5.33774 12.4388 4.42147 11.3916C4.39946 11.3684 4.38219 11.3408 4.37069 11.3105C4.35919 11.2801 4.3537 11.2477 4.35456 11.2151C4.35541 11.1825 4.36257 11.1504 4.37564 11.1208C4.38871 11.0912 4.4074 11.0646 4.43057 11.0426C4.45376 11.0207 4.48097 11.0038 4.51057 10.9931C4.54017 10.9824 4.57155 10.978 4.60282 10.9802C4.63409 10.9824 4.66462 10.9911 4.69256 11.0059C4.72051 11.0207 4.74528 11.0412 4.76544 11.0661C5.64846 12.0757 6.80102 13.0274 8.11835 13.8182C11.1295 15.6269 14.2988 16.1637 15.9204 15.2511C15.8359 15.097 15.7867 14.9247 15.7764 14.7476C15.7662 14.5705 15.7952 14.3933 15.8612 14.2297C15.9272 14.0662 16.0284 13.9206 16.1571 13.8042C16.2859 13.6878 16.4386 13.6037 16.6034 13.5585C16.7684 13.5132 16.941 13.508 17.1081 13.5433C17.2754 13.5785 17.4324 13.6532 17.5674 13.7616C17.7023 13.8701 17.8116 14.0093 17.8867 14.1686C17.9617 14.328 18.0004 14.5031 18 14.6805ZM4.22563 14.6805C4.226 14.8847 4.17441 15.0854 4.07614 15.2622C3.97786 15.4389 3.83638 15.5855 3.66604 15.687C3.49572 15.7886 3.30261 15.8414 3.10631 15.8402C2.91 15.8391 2.7175 15.7838 2.54832 15.6803C2.37915 15.5767 2.23933 15.4283 2.14304 15.2504C2.04676 15.0724 1.99745 14.8711 2.0001 14.6669C2.00276 14.4627 2.05729 14.2629 2.15816 14.0877C2.25904 13.9125 2.40267 13.7682 2.57447 13.6694C2.40611 11.5067 4.59056 8.60721 7.89289 6.62412C9.2644 5.80022 10.6923 5.21537 12.0342 4.91693C12.0924 4.90839 12.1516 4.92311 12.1999 4.95815C12.2481 4.99318 12.2818 5.04592 12.2941 5.10575C12.3065 5.16559 12.2966 5.22806 12.2665 5.28062C12.2364 5.33318 12.1882 5.3719 12.1317 5.38902C10.8383 5.67769 9.4559 6.24375 8.12484 7.04284C5.01473 8.91091 2.95963 11.6036 3.03189 13.5281C3.05935 13.5258 3.08608 13.5236 3.11354 13.5236C3.72777 13.5236 4.22636 14.0423 4.22636 14.6812L4.22563 14.6805ZM8.89659 2.11596C8.90698 1.81634 9.02869 1.5326 9.23612 1.32446C9.44354 1.11631 9.7205 1 10.0087 1C10.2969 1 10.5738 1.11631 10.7813 1.32446C10.9887 1.5326 11.1104 1.81634 11.1208 2.11596C11.1208 2.13325 11.1193 2.14979 11.1186 2.16633C12.9606 3.15637 14.2403 6.53391 14.2403 10.4377C14.2403 12.0426 14.025 13.583 13.6232 14.918C13.6152 14.9497 13.6011 14.9793 13.5818 15.0051C13.5625 15.031 13.5383 15.0525 13.5108 15.0683C13.4833 15.0841 13.4529 15.094 13.4217 15.0973C13.3904 15.1006 13.3587 15.0973 13.3287 15.0875C13.2987 15.0777 13.2709 15.0617 13.247 15.0405C13.2231 15.0192 13.2035 14.9931 13.1896 14.9638C13.1757 14.9345 13.1676 14.9025 13.1658 14.8698C13.1641 14.8372 13.1687 14.8045 13.1795 14.7737C13.5668 13.4867 13.7757 11.9945 13.7757 10.4377C13.7757 6.7617 12.6007 3.60064 10.9958 2.64744C10.8815 2.87797 10.6961 3.06183 10.4693 3.16949C10.2424 3.27714 9.9874 3.30233 9.74516 3.24099C9.50291 3.17966 9.28753 3.03538 9.13363 2.83133C8.97973 2.62727 8.89624 2.37532 8.89659 2.11596Z" fill="#FFC700"/>
<path d="M3.24289 9.73707C2.49282 8.37643 2.34035 7.10298 2.87363 6.14301C3.58757 4.85604 5.37965 4.40651 7.64576 4.83574C7.6769 4.84015 7.70686 4.85107 7.73383 4.86786C7.76081 4.88464 7.78423 4.90693 7.80269 4.93339C7.82116 4.95984 7.83428 4.98992 7.84126 5.0218C7.84825 5.05367 7.84895 5.08669 7.84333 5.11886C7.83772 5.15103 7.82589 5.18168 7.80857 5.20897C7.79126 5.23626 7.76881 5.2596 7.74258 5.27761C7.71635 5.29563 7.68688 5.30792 7.65596 5.31377C7.62504 5.3196 7.5933 5.31887 7.56266 5.3116C5.46709 4.91468 3.8694 5.31536 3.27613 6.38508C2.83895 7.17214 2.97046 8.27119 3.64611 9.49727C3.66309 9.52487 3.6745 9.55578 3.67965 9.58812C3.6848 9.62044 3.68359 9.65353 3.67609 9.68536C3.66859 9.71719 3.65494 9.74711 3.636 9.77329C3.61704 9.79947 3.59318 9.82139 3.56586 9.8377C3.53853 9.85399 3.50829 9.86435 3.47701 9.86814C3.44571 9.87193 3.414 9.86907 3.3838 9.85974C3.35361 9.85039 3.32555 9.83477 3.30132 9.81382C3.2771 9.79286 3.25722 9.76626 3.24289 9.73707ZM14.0242 5.17477C15.3502 5.19282 16.3049 5.62281 16.7348 6.39711C17.3273 7.46382 16.8648 9.09959 15.4932 10.785C15.4713 10.8088 15.4543 10.8371 15.4431 10.868C15.4319 10.899 15.4271 10.932 15.4287 10.965C15.4303 10.998 15.4384 11.0303 15.4524 11.0599C15.4665 11.0896 15.4863 11.1159 15.5105 11.1373C15.5347 11.1587 15.5629 11.1747 15.5933 11.1843C15.6236 11.1939 15.6556 11.197 15.6871 11.1933C15.7187 11.1896 15.7492 11.1792 15.7768 11.1627C15.8043 11.1463 15.8284 11.1242 15.8474 11.0977C17.3316 9.274 17.8497 7.43976 17.1373 6.15504C16.6126 5.21012 15.5041 4.7117 14.0307 4.69141C13.9992 4.68921 13.9675 4.69373 13.9377 4.70468C13.9079 4.71565 13.8806 4.73281 13.8573 4.75513C13.8341 4.77745 13.8155 4.80446 13.8026 4.83451C13.7898 4.86457 13.7829 4.89703 13.7826 4.92992C13.7822 4.96281 13.7882 4.99545 13.8004 5.02583C13.8125 5.05619 13.8304 5.08368 13.8531 5.10659C13.8758 5.12952 13.9028 5.14738 13.9323 5.1591C13.9618 5.17082 13.9926 5.17616 14.0242 5.17477ZM12.6845 16.6305C12.6583 16.6142 12.6293 16.6033 12.5991 16.5985C12.5688 16.5937 12.538 16.5953 12.5084 16.603C12.4787 16.6107 12.4508 16.6244 12.4262 16.6433C12.4016 16.6621 12.3809 16.6859 12.3651 16.7132C11.6902 17.8806 10.8621 18.5167 10.0094 18.5167C8.82289 18.5167 7.69128 17.2785 6.97445 15.1954C6.96487 15.1645 6.94943 15.136 6.92905 15.1115C6.90865 15.0869 6.88373 15.0669 6.85576 15.0526C6.82779 15.0382 6.79734 15.03 6.76621 15.0282C6.73509 15.0264 6.70394 15.031 6.67459 15.0419C6.64525 15.0529 6.6183 15.0699 6.59538 15.0918C6.57245 15.1138 6.554 15.1403 6.54112 15.1699C6.52826 15.1994 6.52121 15.2312 6.52042 15.2637C6.51964 15.2961 6.52512 15.3285 6.53655 15.3585C7.31192 17.6123 8.58153 19 10.008 19C11.0485 19 12.0118 18.2618 12.7633 16.9628C12.779 16.9356 12.7895 16.9053 12.794 16.8739C12.7986 16.8424 12.7971 16.8104 12.7897 16.7795C12.7823 16.7487 12.7692 16.7196 12.751 16.694C12.7328 16.6684 12.7107 16.6469 12.6845 16.6305ZM18 14.6805C17.9997 14.8931 17.9431 15.1015 17.8364 15.2829C17.7298 15.4643 17.5771 15.6115 17.3953 15.7086C17.2134 15.8056 17.0094 15.8487 16.8056 15.8332C16.6017 15.8175 16.406 15.7438 16.2398 15.6202C14.4658 16.7065 11.076 16.1539 7.88639 14.237C6.52788 13.4213 5.33774 12.4388 4.42147 11.3916C4.39946 11.3684 4.38219 11.3408 4.37069 11.3105C4.35919 11.2801 4.3537 11.2477 4.35456 11.2151C4.35541 11.1825 4.36257 11.1504 4.37564 11.1208C4.38871 11.0912 4.4074 11.0646 4.43057 11.0426C4.45376 11.0207 4.48097 11.0038 4.51057 10.9931C4.54017 10.9824 4.57155 10.978 4.60282 10.9802C4.63409 10.9824 4.66462 10.9911 4.69256 11.0059C4.72051 11.0207 4.74528 11.0412 4.76544 11.0661C5.64846 12.0757 6.80102 13.0274 8.11835 13.8182C11.1295 15.6269 14.2988 16.1637 15.9204 15.2511C15.8359 15.097 15.7867 14.9247 15.7764 14.7476C15.7662 14.5705 15.7952 14.3933 15.8612 14.2297C15.9272 14.0662 16.0284 13.9206 16.1571 13.8042C16.2859 13.6878 16.4386 13.6037 16.6034 13.5585C16.7684 13.5132 16.941 13.508 17.1081 13.5433C17.2754 13.5785 17.4324 13.6532 17.5674 13.7616C17.7023 13.8701 17.8116 14.0093 17.8867 14.1686C17.9617 14.328 18.0004 14.5031 18 14.6805ZM4.22563 14.6805C4.226 14.8847 4.17441 15.0854 4.07614 15.2622C3.97786 15.4389 3.83638 15.5855 3.66604 15.687C3.49572 15.7886 3.30261 15.8414 3.10631 15.8402C2.91 15.8391 2.7175 15.7838 2.54832 15.6803C2.37915 15.5767 2.23933 15.4283 2.14304 15.2504C2.04676 15.0724 1.99745 14.8711 2.0001 14.6669C2.00276 14.4627 2.05729 14.2629 2.15816 14.0877C2.25904 13.9125 2.40267 13.7682 2.57447 13.6694C2.40611 11.5067 4.59056 8.60721 7.89289 6.62412C9.2644 5.80022 10.6923 5.21537 12.0342 4.91693C12.0924 4.90839 12.1516 4.92311 12.1999 4.95815C12.2481 4.99318 12.2818 5.04592 12.2941 5.10575C12.3065 5.16559 12.2966 5.22806 12.2665 5.28062C12.2364 5.33318 12.1882 5.3719 12.1317 5.38902C10.8383 5.67769 9.4559 6.24375 8.12484 7.04284C5.01473 8.91091 2.95963 11.6036 3.03189 13.5281C3.05935 13.5258 3.08608 13.5236 3.11354 13.5236C3.72777 13.5236 4.22636 14.0423 4.22636 14.6812L4.22563 14.6805ZM8.89659 2.11596C8.90698 1.81634 9.02869 1.5326 9.23612 1.32446C9.44354 1.11631 9.7205 1 10.0087 1C10.2969 1 10.5738 1.11631 10.7813 1.32446C10.9887 1.5326 11.1104 1.81634 11.1208 2.11596C11.1208 2.13325 11.1193 2.14979 11.1186 2.16633C12.9606 3.15637 14.2403 6.53391 14.2403 10.4377C14.2403 12.0426 14.025 13.583 13.6232 14.918C13.6152 14.9497 13.6011 14.9793 13.5818 15.0051C13.5625 15.031 13.5383 15.0525 13.5108 15.0683C13.4833 15.0841 13.4529 15.094 13.4217 15.0973C13.3904 15.1006 13.3587 15.0973 13.3287 15.0875C13.2987 15.0777 13.2709 15.0617 13.247 15.0405C13.2231 15.0192 13.2035 14.9931 13.1896 14.9638C13.1757 14.9345 13.1676 14.9025 13.1658 14.8698C13.1641 14.8372 13.1687 14.8045 13.1795 14.7737C13.5668 13.4867 13.7757 11.9945 13.7757 10.4377C13.7757 6.7617 12.6007 3.60064 10.9958 2.64744C10.8815 2.87797 10.6961 3.06183 10.4693 3.16949C10.2424 3.27714 9.9874 3.30233 9.74516 3.24099C9.50291 3.17966 9.28753 3.03538 9.13363 2.83133C8.97973 2.62727 8.89624 2.37532 8.89659 2.11596Z" stroke="#FEB221" stroke-width="0.6" mask="url(#path-2-outside-1)"/>
<path d="M13.1475 11.6855C13.0758 12.444 12.7959 13.0365 12.3076 13.4629C11.8193 13.8861 11.1699 14.0977 10.3594 14.0977C9.79297 14.0977 9.29329 13.9642 8.86035 13.6973C8.43066 13.4271 8.09863 13.0446 7.86426 12.5498C7.62988 12.055 7.50781 11.4805 7.49805 10.8262V10.1621C7.49805 9.49154 7.61686 8.90072 7.85449 8.38965C8.09212 7.87858 8.43229 7.4847 8.875 7.20801C9.32096 6.93132 9.83529 6.79297 10.418 6.79297C11.2025 6.79297 11.834 7.00618 12.3125 7.43262C12.791 7.85905 13.0693 8.46126 13.1475 9.23926H11.917C11.8584 8.72819 11.7087 8.36035 11.4678 8.13574C11.2301 7.90788 10.8802 7.79395 10.418 7.79395C9.88086 7.79395 9.46745 7.99089 9.17773 8.38477C8.89128 8.77539 8.74479 9.34993 8.73828 10.1084V10.7383C8.73828 11.5065 8.875 12.0924 9.14844 12.4961C9.42513 12.8997 9.82878 13.1016 10.3594 13.1016C10.8444 13.1016 11.209 12.9925 11.4531 12.7744C11.6973 12.5563 11.8519 12.1934 11.917 11.6855H13.1475Z" fill="white"/>
</svg>
