<svg width="118" height="165" viewBox="0 0 118 165" fill="none" xmlns="http://www.w3.org/2000/svg">
<path fill-rule="evenodd" clip-rule="evenodd" d="M82.8669 7.1394H15C6.71573 7.1394 0 13.8551 0 22.1394V150C0 158.284 6.71574 165 15 165H96.0577C104.342 165 111.058 158.284 111.058 150V35.3303L82.8669 7.1394Z" fill="#1098A8"/>
<path d="M82.1794 32.1834C82.1745 32.5263 82.1721 32.6978 82.1838 32.8414C82.3037 34.3049 83.4654 35.4665 84.9289 35.5864C85.0724 35.5981 85.2439 35.5957 85.5868 35.5908L102.8 35.3462C103.508 35.3361 103.862 35.3311 104.071 35.2986C106.309 34.9495 107.368 32.3412 106.006 30.5311C105.879 30.3624 105.629 30.1118 105.128 29.6107L88.1596 12.6426C87.6584 12.1414 87.4078 11.8909 87.2391 11.764C85.429 10.4024 82.8207 11.4612 82.4717 13.6991C82.4391 13.9077 82.4341 14.2621 82.424 14.9707L82.1794 32.1834Z" fill="#B6DCFF"/>
<path d="M82.6417 7.32129L88.1698 12.5612L82.4285 14.9352L82.6417 7.32129Z" fill="#B6DCFF"/>
<path d="M110.929 35.0289L103.427 35.3396L105.343 30.0109L110.929 35.0289Z" fill="#B6DCFF"/>
<rect x="17" y="100" width="40" height="5.26849" rx="2.63424" fill="white"/>
<path d="M17 113.171C17 111.716 18.1794 110.537 19.6342 110.537H93.3931C94.8479 110.537 96.0273 111.716 96.0273 113.171C96.0273 114.626 94.8479 115.805 93.3931 115.805H19.6342C18.1794 115.805 17 114.626 17 113.171Z" fill="white"/>
<rect x="17" y="121.074" width="79.0273" height="5.26849" rx="2.63424" fill="white"/>
<rect x="16.8591" y="40.0405" width="57.9534" height="7.37588" rx="3.68794" fill="white"/>
<rect x="16.8592" y="67.4368" width="79.0273" height="5.26849" rx="2.63424" fill="white"/>
<path d="M16.8592 80.6079C16.8592 79.153 18.0386 77.9736 19.4934 77.9736H93.2523C94.7071 77.9736 95.8865 79.153 95.8865 80.6079C95.8865 82.0627 94.7071 83.2421 93.2523 83.2421H19.4934C18.0386 83.2421 16.8592 82.0627 16.8592 80.6079Z" fill="white"/>
<rect x="16.8592" y="88.5107" width="79.0273" height="5.26849" rx="2.63424" fill="white"/>
</svg>
