<svg width="169" height="165" viewBox="0 0 169 165" fill="none" xmlns="http://www.w3.org/2000/svg">
<path d="M50.9913 14.2241H147.147V153.621H50.9913V14.2241Z" fill="white"/>
<path d="M50.9913 14.2241C50.9913 6.3685 44.4684 0 36.4224 0C28.3763 0 21.8534 6.3685 21.8534 14.2241V153.621H50.9913V14.2241Z" fill="#3E8BAC"/>
<path d="M50.9913 153.621V150.776C50.9913 142.92 44.4684 136.552 36.4224 136.552C28.3763 136.552 21.8534 142.92 21.8534 150.776C21.8534 158.632 28.3763 165 36.4224 165H118.009V153.621H50.9913Z" fill="#224773"/>
<path d="M62.6466 25.6035H135.491V54.0518H62.6466V25.6035Z" fill="#1098A8"/>
<path d="M62.6466 65.4312H97.6121V96.7243H62.6466V65.4312Z" fill="#1098A8"/>
<path d="M100.526 108.104H135.491V142.241H100.526V108.104Z" fill="#1098A8"/>
<path d="M106.354 65.4312H138.405V71.1208H106.354V65.4312Z" fill="#29485A"/>
<path d="M106.354 76.8105H138.405V82.5002H106.354V76.8105Z" fill="#29485A"/>
<path d="M106.354 88.1897H138.405V93.8793H106.354V88.1897Z" fill="#29485A"/>
<path d="M59.7328 105.259H91.7845V110.948H59.7328V105.259Z" fill="#29485A"/>
<path d="M59.7328 116.638H91.7845V122.328H59.7328V116.638Z" fill="#29485A"/>
<path d="M59.7328 128.017H91.7845V133.707H59.7328V128.017Z" fill="#29485A"/>
<path d="M59.7328 139.397H91.7845V145.086H59.7328V139.397Z" fill="#29485A"/>
</svg>
