<svg height="512pt" viewBox="-43 0 511 512" width="512pt" xmlns="http://www.w3.org/2000/svg"><path d="m252.355469 494.726562h-78.992188l28.742188-273.015624h21.511719zm0 0" fill="#dae5ea"/><path d="m223.617188 221.710938h-13.488282l-18.039062 273.015624h60.265625zm0 0" fill="#c9d1d3"/><g fill="#dae5ea"><path d="m203.164062 241.390625c-14.0625-8.8125-21.941406-24.558594-20.554687-41.097656l15.738281-187.726563c.589844-7.046875 6.59375-12.566406 13.664063-12.566406 7.1875 0 13.195312 5.617188 13.679687 12.789062l12.015625 178.503907c.539063 7.988281-1.105469 15.976562-4.753906 23.097656l-17.714844 34.5625zm0 0"/><path d="m411.511719 371.394531c-2.09375 0-4.195313-.492187-6.078125-1.421875l-160.339844-79.367187c-7.171875-3.550781-13.25-8.988281-17.570312-15.726563l-20.972657-32.6875 12.613281-6.632812c6.308594-3.324219 13.414063-5.078125 20.546876-5.078125 9.101562 0 17.851562 2.757812 25.308593 7.972656l154.359375 107.996094c5.792969 4.054687 7.546875 12.015625 3.992188 18.128906-2.449219 4.203125-6.992188 6.816406-11.859375 6.816406zm0 0"/><path d="m14.207031 371.464844c-4.90625 0-9.46875-2.644532-11.90625-6.902344-3.570312-6.238281-1.679687-14.242188 4.304688-18.226562l148.941406-99.117188c6.664063-4.433594 14.410156-6.972656 22.410156-7.347656l38.796875-1.800782-.566406 14.238282c-.660156 16.585937-10.414062 31.242187-25.457031 38.257812l-170.734375 79.613282c-1.828125.851562-3.777344 1.285156-5.789063 1.285156zm0 0"/></g><path d="m240.777344 241.453125c0 15.296875-12.398438 27.695313-27.695313 27.695313s-27.695312-12.398438-27.695312-27.695313c0-15.292969 12.398437-27.691406 27.695312-27.691406s27.695313 12.398437 27.695313 27.691406zm0 0" fill="#e3f6ff"/><path d="m133.121094 512h159.480468c5.042969 0 8.78125-4.683594 7.660157-9.605469l-2.308594-10.132812c-1.972656-8.664063-9.671875-14.808594-18.554687-14.808594h-133.074219c-8.886719 0-16.585938 6.144531-18.558594 14.808594l-2.308594 10.132812c-1.121093 4.921875 2.617188 9.605469 7.664063 9.605469zm0 0" fill="#465058"/><path d="m300.261719 502.394531-2.308594-10.132812c-1.972656-8.664063-9.671875-14.808594-18.554687-14.808594h-55.371094c5.214844 0 9.734375 3.609375 10.894531 8.695313l5.886719 25.851562h51.792968c5.042969 0 8.78125-4.683594 7.660157-9.605469zm0 0" fill="#323e44"/></svg>